<?xml version="1.0" encoding="UTF-8"?><svg id="Layer_2" xmlns="http://www.w3.org/2000/svg" viewBox="0 0 1500 385.82"><defs><style>.cls-1{fill:#252525;}</style></defs><g id="Layer_1-2"><path class="cls-1" d="M1376.93,0v371.3h123.07V0h-123.07ZM523.95,0h-123.07v371.3h205.66v-76.12h-82.58V0ZM283.84,0h-123.07v371.3h205.66v-76.12h-82.58V0ZM0,371.3h123.07V0H0v371.3ZM830.41,214.4c0,56.75-9.89,96.78-44.58,96.78s-44.58-40.03-44.58-96.78l.09-214.4h-123.07v195.11c0,138.13,74.39,190.7,167.56,190.7s167.56-52.58,167.56-190.7V0h-123.07l.09,214.4ZM989.9,371.3h100.23l75.02-185.65-175.26,48.9v136.76ZM1340.42,371.3v-136.76l-175.26-48.9,75.02,185.65h100.24ZM989.9,0v136.76l175.26,48.9L1090.14,0h-100.23ZM1165.16,185.65l175.26-48.9V0h-100.24l-75.02,185.65Z"/></g></svg>